<?xml version="1.0" encoding="UTF-8"?>
<svg width="16px" height="16px" viewBox="0 0 16 16" version="1.1" xmlns="http://www.w3.org/2000/svg" xmlns:xlink="http://www.w3.org/1999/xlink">
    <title>矩形</title>
    <g id="页面1" stroke="none" stroke-width="1" fill="none" fill-rule="evenodd">
        <g id="交互/UI组件" transform="translate(-7430.000000, -330.000000)">
            <g id="编组-11" transform="translate(7168.000000, 322.000000)">
                <g id="4基础组件/5表单/文本框/icon/搜索" transform="translate(262.000000, 8.000000)">
                    <path d="M2.94182364,11.9796211 C0.442207035,9.4830009 0.442207035,5.43491725 2.94182364,2.93829709 C5.44144024,0.440611368 9.4943824,0.440611368 11.993999,2.93829709 C14.4946824,5.43491725 14.4946824,9.4830009 11.993999,11.9796211 C9.4943824,14.4762412 5.44144024,14.4762412 2.94182364,11.9796211 L2.94182364,11.9796211 Z M15.6453059,14.9290751 L13.0896483,12.3568313 L13.0896483,12.3568313 C15.6532755,9.42652592 15.5444574,4.97672405 12.748258,2.18494223 C9.8325721,-0.728314075 5.10431739,-0.728314075 2.18756459,2.18494223 C-0.729188198,5.09713296 -0.729188198,9.81971962 2.18756459,12.7329759 C4.98483081,15.5268889 9.44317386,15.6334454 12.3769962,13.0686291 L14.935788,15.6430699 C15.1305069,15.8389797 15.447174,15.8399451 15.6430838,15.6452262 C15.6438162,15.6444982 15.6445463,15.643768 15.6452742,15.6430355 C15.8415489,15.4455222 15.8415631,15.1266059 15.6453059,14.9290751 Z" id="icon" fill="#5C5C5C"></path>
                    <rect id="矩形" x="0" y="0" width="16" height="16"></rect>
                </g>
            </g>
        </g>
    </g>
</svg>