<svg id="图层_1" data-name="图层 1" xmlns="http://www.w3.org/2000/svg" xmlns:xlink="http://www.w3.org/1999/xlink" viewBox="0 0 237 124"><defs><style>.cls-1{fill:#fff;}.cls-1,.cls-2{fill-rule:evenodd;}.cls-2,.cls-5,.cls-7,.cls-8{fill:#538aff;}.cls-3{mask:url(#mask);}.cls-4{mask:url(#mask-2);}.cls-6,.cls-7{isolation:isolate;}.cls-7,.cls-8{font-size:14px;font-family:FZZDHJW--GB1-0, FZZhengHeiS-EB-GB;}.cls-9{fill:none;}</style><mask id="mask" x="0" y="120.18" width="42.6" height="1.53" maskUnits="userSpaceOnUse"><g transform="translate(0)"><g id="mask-4"><polygon id="path-3" class="cls-1" points="0 120.18 42.6 120.18 42.6 121.7 0 121.7 0 120.18"/></g></g></mask><mask id="mask-2" x="224.22" y="122.05" width="12.68" height="1.95" maskUnits="userSpaceOnUse"><g transform="translate(0)"><g id="mask-6"><polygon id="path-5" class="cls-1" points="224.22 122.05 236.9 122.05 236.9 124 224.22 124 224.22 122.05"/></g></g></mask></defs><title>hover</title><g id="控件"><g id="编组-3"><g id="编组"><path id="Fill-1" class="cls-2" d="M123,102.35h24.16c3.55,0,3.55,0,3.7-2.87.11-2,.06-2.09-2.5-2.09q-24.76,0-49.54,0c-3.65,0-3.84-.78-3.76,3.09,0,1.76.14,1.86,2.25,1.86Zm0,9.84c14.92,0,29.84,0,44.76,0a58.09,58.09,0,0,0,8.22-.71c9.62-1.45,19.21-3,28.82-4.5q8.53-1.33,17.06-2.63c1.24-.18,1.91-.64,1.84-1.75s0-2.17,0-3.25c0-1.92-.07-1.95-2.43-1.95H155.55c-2.32,0-2.37.05-2.38,2,0,1,0,2,0,3,0,1.62-.25,1.8-2.22,1.8H95.42c-2.43,0-2.58-.12-2.59-2.15,0-1,0-2.08,0-3.12s-.48-1.54-1.9-1.54q-33.47,0-66.91,0c-1.31,0-1.74.43-1.71,1.42.05,1.24.08,2.5,0,3.74,0,1.07.51,1.61,1.79,1.8,2.07.3,4.12.67,6.18,1,12,1.86,23.94,3.74,35.92,5.57a72.89,72.89,0,0,0,10.15,1.25c15.54.14,31.07.06,46.61.06Zm0-16.6h86.46c2.75,0,2.76,0,2.76-2.19q0-39.93,0-79.84c0-4.37-2.78-6.69-8.09-6.69H41.71c-5.05,0-8,2.32-8,6.4q0,40,0,80.08c0,2.24,0,2.24,2.69,2.24ZM122.92,5h81.39c6.35,0,10.3,3.25,10.3,8.48q0,40.05,0,80.09c0,2,0,2,2.44,2s4.72,0,7.08,0c1.36,0,1.81.52,1.81,1.52,0,2.29,0,4.58.05,6.87,0,1-.46,1.61-1.78,1.81-7.05,1.08-14.09,2.21-21.13,3.31q-14.86,2.33-29.74,4.63a20.68,20.68,0,0,1-3,.25c-31.49,0-63,.06-94.47,0a75,75,0,0,1-10.91-1.38c-10.27-1.56-20.53-3.18-30.79-4.79-4.13-.64-8.24-1.34-12.36-2-1.24-.19-1.77-.72-1.77-1.7,0-2.37,0-4.75,0-7.12,0-1,.65-1.4,1.84-1.39,2.47,0,4.93,0,7.39,0,2.08,0,2.09,0,2.11-1.63,0-1.46,0-2.92,0-4.38q0-37.72,0-75.47a10.09,10.09,0,0,1,1.06-4.72C34.16,6.3,37.42,5,41.54,5h81.38Z" transform="translate(0)"/><path id="Fill-3" class="cls-2" d="M99.05,118h60.64c.9,0,2.28-.17,2.31.46s-1.35.49-2.24.49q-60.66,0-121.3,0c-.94,0-2.43.2-2.46-.46s1.46-.48,2.4-.48H99.05" transform="translate(0)"/><path id="Fill-5" class="cls-2" d="M173.59,122.05h41c1,0,2.37-.27,2.4.93s-1.39,1-2.35,1q-41.16,0-82.32,0a2.47,2.47,0,0,1-.91,0A13.33,13.33,0,0,1,130,123a5.07,5.07,0,0,1,1.52-.93,14,14,0,0,1,2.59,0h39.48" transform="translate(0)"/><g class="cls-3"><path id="Fill-9" class="cls-2" d="M21.25,121.68h-19a2.63,2.63,0,0,1-.75,0c-.52-.23-1-.52-1.47-.78a4.93,4.93,0,0,1,1.61-.67c2.14-.08,4.29,0,6.44,0q16.34,0,32.68,0c1,0,1.89,0,1.87.8s-1.06.68-1.86.69H21.25Z" transform="translate(0)"/></g><g class="cls-4"><path id="Fill-11" class="cls-2" d="M230.48,124c-1.58,0-3.17.08-4.73,0-.54-.05-1-.59-1.53-.9.49-.32,1-.91,1.48-.92,3.15-.09,6.32-.06,9.48,0,.82,0,1.89.1,1.7,1-.08.39-1.15.83-1.81.89-1.52.13-3.06,0-4.59,0" transform="translate(0)"/></g><path id="Fill-13" class="cls-2" d="M122.84,88.16h76c2.85,0,2.85,0,2.85-2.25V19.42c0-.71-.07-1.42,0-2.12.1-1.16-.56-1.6-1.93-1.49-.35,0-.71,0-1.07,0H47c-2.68,0-2.68,0-2.68,2.13q0,34.05,0,68.1c0,2.06.06,2.11,2.55,2.11h76m0,1.8H54.17c-3.34,0-6.67,0-10,0-1.84,0-2.16-.3-2.16-1.75Q42,52.59,42,17c0-3,0-3,3.59-3H201.23c2.65,0,2.77.1,2.77,2.41q0,31.74,0,63.49v8.35c0,1.39-.47,1.74-2.21,1.74l-42.53,0H122.89" transform="translate(0)"/></g><path id="形状" class="cls-5" d="M145,47a7,7,0,1,1,7-7A7,7,0,0,1,145,47Zm1.18-9.8h-1.52l2.14,2.24h-5.65v1.12h5.65l-2.14,2.24h1.52l2.67-2.8Z" transform="translate(0)"/><g id="点击-进入考核场景" class="cls-6"><text class="cls-7" transform="translate(102 44)">点击</text><text class="cls-8" transform="translate(130 44)"> </text><text class="cls-7" transform="translate(74 64)">进入考核场景</text></g><rect id="矩形" class="cls-9" width="237" height="124"/></g></g></svg>