<svg id="图层_1" data-name="图层 1" xmlns="http://www.w3.org/2000/svg" viewBox="0 0 20 24"><defs><style>.cls-1{fill:#eee;}.cls-2{fill:none;}</style></defs><title>未点击</title><g id="控件"><g id="编组"><g id="标记备份-3"><path id="路径" class="cls-1" d="M18.19,0a1.57,1.57,0,0,1,.68.15A1.78,1.78,0,0,1,19.7.8a1.69,1.69,0,0,1,.3,1V22.23a1.72,1.72,0,0,1-.3,1,1.78,1.78,0,0,1-.83.65,1.59,1.59,0,0,1-.68.13,1.84,1.84,0,0,1-1.3-.51L10,16.75,3.11,23.48a1.85,1.85,0,0,1-1.3.52,1.72,1.72,0,0,1-.68-.14,1.85,1.85,0,0,1-.83-.65,1.75,1.75,0,0,1-.3-1V1.78A1.69,1.69,0,0,1,.3.8,1.8,1.8,0,0,1,1.13.14,1.76,1.76,0,0,1,1.81,0Z"/></g><rect id="矩形" class="cls-2" width="20" height="24"/></g></g></svg>