<?xml version="1.0" encoding="UTF-8"?>
<svg width="24px" height="24px" viewBox="0 0 24 24" version="1.1" xmlns="http://www.w3.org/2000/svg" xmlns:xlink="http://www.w3.org/1999/xlink">
    <title>矩形</title>
    <defs>
        <polygon id="path-1" points="7e-05 0.0405416667 20 0.0405416667 20 13.1249818 7e-05 13.1249818"></polygon>
        <polygon id="path-3" points="5.21104742e-05 0.0397818182 10.4343408 0.0397818182 10.4343408 3.94884364 5.21104742e-05 3.94884364"></polygon>
        <polygon id="path-5" points="7e-05 0.0506439394 20 0.0506439394 20 12.4999811 7e-05 12.4999811"></polygon>
    </defs>
    <g id="页面1" stroke="none" stroke-width="1" fill="none" fill-rule="evenodd">
        <g id="关联课程-添加" transform="translate(-725.000000, -459.000000)">
            <g id="编组-2" transform="translate(725.000000, 459.000000)">
                <g id="编组" transform="translate(2.000000, 3.000000)">
                    <g transform="translate(0.000000, 2.000000)">
                        <mask id="mask-2" fill="white">
                            <use xlink:href="#path-1"></use>
                        </mask>
                        <g id="Clip-2"></g>
                        <path d="M19.11917,13.1249818 L0.88087,13.1249818 C0.39457,13.1249818 7e-05,12.8063359 7e-05,12.4111276 L7e-05,0.754395833 C7e-05,0.3591875 0.39457,0.0405416667 0.88087,0.0405416667 L19.11917,0.0405416667 C19.60547,0.0405416667 20.00007,0.3591875 20.00007,0.754395833 L20.00007,12.4111276 C20.00007,12.804513 19.60357,13.1249818 19.11917,13.1249818" id="Fill-1" fill="#FFE9B4" mask="url(#mask-2)"></path>
                    </g>
                    <g>
                        <mask id="mask-4" fill="white">
                            <use xlink:href="#path-3"></use>
                        </mask>
                        <g id="Clip-4"></g>
                        <path d="M10.4343408,3.94884364 L5.21104742e-05,3.94884364 L5.21104742e-05,0.680407273 C5.21104742e-05,0.32528 0.411203752,0.0397527273 0.918030224,0.0397527273 L8.05883273,0.0397527273 C8.46591975,0.0397527273 8.82214695,0.224407273 8.93824909,0.495752727 L10.4343408,3.94884364 Z" id="Fill-3" fill="#FFB02C" mask="url(#mask-4)"></path>
                    </g>
                    <g transform="translate(0.000000, 3.000000)">
                        <mask id="mask-6" fill="white">
                            <use xlink:href="#path-5"></use>
                        </mask>
                        <g id="Clip-6"></g>
                        <path d="M19.11917,12.4999811 L0.88087,12.4999811 C0.39457,12.4999811 7e-05,12.1282008 7e-05,11.6657955 L7e-05,0.884829545 C7e-05,0.424223485 0.39457,0.0506439394 0.88087,0.0506439394 L19.11917,0.0506439394 C19.60547,0.0506439394 20.00007,0.424223485 20.00007,0.884829545 L20.00007,11.6657955 C20.00007,12.1264015 19.60357,12.4999811 19.11917,12.4999811" id="Fill-5" fill="#FFCA28" mask="url(#mask-6)"></path>
                    </g>
                </g>
                <rect id="矩形" x="0" y="0" width="24" height="24"></rect>
            </g>
        </g>
    </g>
</svg>