<svg xmlns="http://www.w3.org/2000/svg" xmlns:xlink="http://www.w3.org/1999/xlink" viewBox="0 0 474.02 105.32"><defs><style>.cls-1{isolation:isolate;}.cls-2{fill:url(#未命名的渐变_18);}.cls-3{fill:url(#未命名的渐变_16);}.cls-4{fill:url(#未命名的渐变_16-2);}.cls-5{fill:url(#未命名的渐变_12);}.cls-6{fill:url(#未命名的渐变_24);}.cls-7{mix-blend-mode:multiply;fill:url(#未命名的渐变_19);}.cls-8{fill:#6fb92c;}.cls-9{fill:#0b308e;}.cls-10{fill:#fff;}</style><linearGradient id="未命名的渐变_18" x1="115.77" y1="69.91" x2="66.91" y2="51.18" gradientUnits="userSpaceOnUse"><stop offset="0" stop-color="#fff" stop-opacity="0"/><stop offset="0.34" stop-color="#7dccf3"/><stop offset="0.77" stop-color="#3063af"/><stop offset="1" stop-color="#0b308e"/></linearGradient><linearGradient id="未命名的渐变_16" x1="0.93" y1="79.32" x2="40.5" y2="83.88" gradientUnits="userSpaceOnUse"><stop offset="0" stop-color="#fff" stop-opacity="0"/><stop offset="0.5" stop-color="#c9dd74"/><stop offset="1" stop-color="#6fb92c"/></linearGradient><linearGradient id="未命名的渐变_16-2" x1="72.63" y1="46" x2="32.69" y2="46" xlink:href="#未命名的渐变_16"/><linearGradient id="未命名的渐变_12" x1="2504.88" y1="6921.9" x2="2464.93" y2="6921.9" gradientTransform="translate(2537.56 6981.21) rotate(180)" gradientUnits="userSpaceOnUse"><stop offset="0" stop-color="#fff" stop-opacity="0"/><stop offset="0.5" stop-color="#7dccf3"/><stop offset="1" stop-color="#0b308e"/></linearGradient><linearGradient id="未命名的渐变_24" x1="72.63" y1="52.66" x2="32.69" y2="52.66" gradientUnits="userSpaceOnUse"><stop offset="0" stop-color="#fff"/><stop offset="1" stop-color="#0b308e"/></linearGradient><linearGradient id="未命名的渐变_19" x1="32.69" y1="52.66" x2="72.63" y2="52.66" gradientUnits="userSpaceOnUse"><stop offset="0" stop-color="#ccde77"/><stop offset="1" stop-color="#6fb92c"/></linearGradient></defs><title>logo</title><g class="cls-1"><g id="图层_1" data-name="图层 1"><path class="cls-2" d="M20,52.66A32.64,32.64,0,1,1,81.36,68.2l17.82,9.14A52.66,52.66,0,1,0,0,52.66,52.45,52.45,0,0,0,6.13,77.34L24,68.2A32.44,32.44,0,0,1,20,52.66Z"/><path class="cls-3" d="M52.66,105.32a52.66,52.66,0,0,0,46.52-28L81.36,68.2A32.64,32.64,0,0,1,24,68.2L6.13,77.34A52.67,52.67,0,0,0,52.66,105.32Z"/><path class="cls-4" d="M72.63,59.32H46A13.32,13.32,0,0,1,32.69,46h0A13.31,13.31,0,0,1,46,32.69H72.63Z"/><path class="cls-5" d="M32.69,46H59.32A13.3,13.3,0,0,1,72.63,59.32h0A13.31,13.31,0,0,1,59.32,72.63H32.69Z"/><path class="cls-6" d="M46,59.32H72.63A13.31,13.31,0,0,0,59.32,46H32.69A13.32,13.32,0,0,0,46,59.32Z"/><path class="cls-7" d="M46,59.32H72.63A13.33,13.33,0,0,0,59.32,46H32.69A13.31,13.31,0,0,0,46,59.32Z"/><path class="cls-8" d="M59.32,32.69A6.65,6.65,0,0,1,66,39.34a6.66,6.66,0,0,1,6.66-6.65A6.66,6.66,0,0,1,66,26,6.66,6.66,0,0,1,59.32,32.69Z"/><path class="cls-9" d="M69.3,39.34a3.33,3.33,0,0,1,3.33,3.33A3.33,3.33,0,0,1,76,39.34,3.33,3.33,0,0,1,72.63,36,3.33,3.33,0,0,1,69.3,39.34Z"/><path class="cls-10" d="M9.23,62.6a2.27,2.27,0,0,0-.36,2c.29,1.06.87,1.45,1.43,1.3s.64-1,.5-2c-.23-1.64-.21-3.23,1.6-3.71s2.83.84,3.28,2.54c.42,1.55.26,2.87-1,3.81l-.94-1a2.23,2.23,0,0,0,.63-2.46c-.24-.9-.78-1.66-1.61-1.44s-.81,1-.64,2.06c.23,1.6.2,3.15-1.5,3.6S8,66.4,7.63,65a3.19,3.19,0,0,1,.71-3.4Z"/><path class="cls-10" d="M12.6,51.75l.1,4.11,1.5.64,0,1.61L6.29,54.77l0-1.62L14,49.43l0,1.62ZM7.92,53.92l3.39,1.38-.08-2.92Z"/><path class="cls-10" d="M7.75,40.75l.33-1.45L15.77,41l-.21.9h0L9.48,44.8,14.66,46l-.33,1.45L6.65,45.69l.26-1.18,5.61-2.69Z"/><path class="cls-10" d="M13.91,30.66a3.06,3.06,0,0,0-1.6,1.44,2.68,2.68,0,0,0,1.38,3.72,2.49,2.49,0,0,0,3.57-1.24,2.63,2.63,0,0,0,.23-1.87l-1.24-.63-.91,1.8-1.18-.59,1.51-3,3,1.49a3.91,3.91,0,0,1-.14,3.44A3.79,3.79,0,0,1,13,37.12a4,4,0,0,1-1.94-5.63,4.16,4.16,0,0,1,2.38-2.08Z"/><path class="cls-10" d="M21.16,30.27l-6.06-5,3.61-4.36,1.1.91L17.15,25,18.8,26.4l2.52-3,1.06.87-2.52,3,2.25,1.86Z"/><path class="cls-10" d="M30.37,16.35a3.85,3.85,0,0,1-.8,5.67,3.84,3.84,0,0,1-5.67-.82,4,4,0,1,1,6.47-4.85Zm-5.29,4a2.58,2.58,0,1,0,4.13-3.1,2.59,2.59,0,1,0-4.13,3.1Z"/><path class="cls-10" d="M41.2,15.66l-1.62.68-3.14-1.53-1.31.55,1,2.43-1.36.57-3.05-7.27c1.15-.48,2.3-.95,3.45-1.44A2.61,2.61,0,0,1,38.8,11a2.33,2.33,0,0,1-.87,3l3.23,1.56ZM33.63,11.8l1,2.33,2.08-.88a1.26,1.26,0,1,0-1-2.32Z"/><path class="cls-10" d="M53.14,6.15l.26,4.5a3.2,3.2,0,0,1-3.19,3.72,3.29,3.29,0,0,1-3.7-3.31l-.27-4.5,1.48-.09L48,11a1.94,1.94,0,0,0,2.16,2c1.23-.07,1.87-.94,1.79-2.28l-.26-4.5Z"/><path class="cls-10" d="M62.82,7.33l1.46.26-1.43,7.76-.91-.17h0l-3.1-6-1,5.22-1.46-.27,1.43-7.74L59,6.64l2.9,5.5Z"/><path class="cls-10" d="M65.42,16.27l2.77-7.36,1.38.52L66.8,16.79Z"/><path class="cls-10" d="M73,20l-1.32-.79L73,10.72l1.42.86-1.13,6.47,5.21-4,1.42.86Z"/><path class="cls-10" d="M81.7,27.16,77.49,23q2.74-2.82,5.51-5.63l4.2,4.13-1,1L83,19.47l-1.27,1.29,3,3-1,1-3-3L79.56,23l3.16,3.09Z"/><path class="cls-10" d="M87.06,34.88l-1-1.48,1-3.36-.77-1.2-2.21,1.43L83.27,29l6.62-4.29c.68,1.05,1.34,2.1,2,3.15a2.6,2.6,0,0,1-.65,3.8,2.32,2.32,0,0,1-3.15-.33l-1,3.46Zm2.46-8.13-2.11,1.37L88.64,30a1.26,1.26,0,1,0,2.11-1.37Z"/><path class="cls-10" d="M95.22,39.5a2.3,2.3,0,0,0,.21-2.06c-.37-1-1-1.38-1.53-1.19s-.56,1.06-.35,2c.35,1.61.46,3.2-1.32,3.82s-2.88-.63-3.46-2.29-.47-2.85.69-3.88l1,1a2.24,2.24,0,0,0-.44,2.5c.31.88.91,1.6,1.72,1.32s.72-1.08.48-2.1c-.35-1.58-.44-3.13,1.23-3.71s2.68.75,3.17,2.11a3.18,3.18,0,0,1-.45,3.44Z"/><path class="cls-10" d="M90.51,45.32,98.27,44l.24,1.45-7.76,1.32Z"/><path class="cls-10" d="M97.72,51.91V49.42h1.35c0,2.27,0,4.2,0,6.48H97.71V53.4l-6.53,0V51.89Z"/><path class="cls-10" d="M94.61,62.81l2.67,2.8-.42,1.73h-.07l-3.68-4.12L90,62.44,90.3,61l3.15.76,5.14-1.86h.07l-.42,1.72Z"/><path class="cls-10" d="M15.24,80.79c.22-.07.46-.16.73-.27s.58-.25.94-.43l.94-.47c.28-.14.51-.27.72-.39l.51,1-.73.43-1,.48c-.35.16-.67.31-1,.43l-.77.3Zm1.78.59a6.11,6.11,0,0,0,1.73.35,4.85,4.85,0,0,0,1.6-.17l-1.08-1.18.78-.72,1.71,1.88.77-.7.73.81-.76.7,1.81,2-.78.71-1.24-1.35A5.16,5.16,0,0,0,22,85.3a5.75,5.75,0,0,0,.18,1.59l-1.15.2a5.27,5.27,0,0,1-.11-.92,6.75,6.75,0,0,1,0-1,6,6,0,0,1,.21-1,4.38,4.38,0,0,1,.42-1L19,85.54l-.74-.8,2.6-2.38a5.38,5.38,0,0,1-1.93.43,6.65,6.65,0,0,1-2.13-.28Zm3.26-4.6a10.79,10.79,0,0,1,.12,1.15,8.2,8.2,0,0,1,0,1.17l-1.11.1c0-.15,0-.32,0-.52s0-.42,0-.66,0-.46,0-.64,0-.35-.05-.49Zm.48,2.15a9.73,9.73,0,0,0,1.35.32l.79.12.62.06-.1,1a6,6,0,0,1-.66-.06l-.83-.12c-.3,0-.56-.1-.79-.16s-.43-.11-.61-.16Zm6.55,2.57-1.48,1.35-.71-.78.73-.66-2.8-3.07-.72.66-.72-.78.56-.51-.93.07a4,4,0,0,0,0-.49q0-.26,0-.6c0-.23,0-.44,0-.63s0-.35-.05-.49l1-.09a7.67,7.67,0,0,1,.15,1.11c0,.39,0,.71,0,1l.73-.68Zm-2.64-.84c0,.18.09.38.15.62s.09.51.14.82.07.57.1.79,0,.45,0,.66l-1.05.09c0-.18,0-.39,0-.62s-.05-.49-.08-.8-.08-.56-.11-.79-.08-.42-.12-.59Z"/><path class="cls-10" d="M34.25,85.6c0,.1,0,.22-.07.35s-.07.28-.12.45l-.05.2L36.23,88l-.54.89-5.52-3.41.46-.74c-.2.15-.38.3-.56.45l-.54.41-3.6,5.83L25,90.82l2.42-3.93-.51.28-.45-1.12a20.41,20.41,0,0,0,2.12-1.27c.39-.26.74-.51,1.07-.76a10,10,0,0,0,.91-.77l.8.82-.31.27-.3.26L33,86l0-.16.1-.41c0-.11.05-.22.07-.31Zm-1,6L31.47,94.5l-4.66-2.86,1.79-2.9Zm-4.93-.24L31,93.05l.71-1.16L29,90.21Zm5.61-1.17-.51.83L29,88.33l.51-.82Zm.78-1.26-.48.77L29.86,87l.47-.77Z"/><path class="cls-10" d="M35.45,96.26a7.39,7.39,0,0,0,.66-.75,5.48,5.48,0,0,0,.48-.78,20,20,0,0,0,.95-2.84l1-3.68,3,.85-2.12,7.53a1.29,1.29,0,0,1-.19.44.75.75,0,0,1-.25.25.71.71,0,0,1-.31.1,2,2,0,0,1-.35,0l-.5-.1-.5-.13.09-1.1.36.13.37.11.16,0,.1,0a.2.2,0,0,0,.07-.1A1.89,1.89,0,0,1,38.6,96l.47-1.65L37.93,94c-.09.29-.19.56-.28.79s-.19.44-.28.62A6.59,6.59,0,0,1,36.23,97Zm2.78-3.19,1.11.31L39.72,92l-1.1-.31L38.25,93Zm.65-2.3,1.1.31.37-1.29-1.11-.31Zm7.41-.39q-.16.59-.3,1c-.1.28-.19.55-.3.83a1.77,1.77,0,0,1-.19.39.79.79,0,0,1-.24.21.9.9,0,0,1-.34.06,2.58,2.58,0,0,1-.49-.06,4.46,4.46,0,0,1-.69-.13l-.62-.17.07-1,.31.1.25.08.23.07.28.07a.65.65,0,0,0,.35,0c.07,0,.12-.09.17-.19l.09-.25c0-.1.06-.19.08-.29l-2.23-.64-.62,2.21,3.41,1-.27.92a10.07,10.07,0,0,1-.69,1,5.24,5.24,0,0,1-.93,1l-.2.17a4.6,4.6,0,0,0,.52.84,7.07,7.07,0,0,0,.72.79l-.82.73a9.6,9.6,0,0,1-.71-.92,7.64,7.64,0,0,1-.51-.85,6.89,6.89,0,0,1-1.79.8l-.15-.36-.11.41-1-.27L42,89.19ZM42.2,96.29a6.58,6.58,0,0,1-.26-1.21,7.83,7.83,0,0,1,0-1.47l-.06,0-.93,3.28a4.27,4.27,0,0,0,.7-.27C41.82,96.5,42,96.4,42.2,96.29Zm.67-2.41a7.55,7.55,0,0,0,0,1,5.31,5.31,0,0,0,.15.83,6.54,6.54,0,0,0,1.23-1.4Z"/><path class="cls-10" d="M48.19,99.29a5.22,5.22,0,0,0,.55-.84,4.77,4.77,0,0,0,.3-.78,7.42,7.42,0,0,0,.2-2V94.09H51.1c0-.09-.09-.18-.14-.28l-.17-.32q-.15-.27-.27-.45l-.22-.34.5-.26H48.61V91.36l3.79,0s0-.11,0-.16,0-.12-.06-.19l-.1-.3-.1-.22,1.17-.17.11.25c0,.09.07.2.12.32s.06.18.08.26a.89.89,0,0,1,.06.2l3.74,0v1.08l-2.05,0,.44.17c-.07.15-.15.33-.25.53s-.23.43-.36.68l-.16.27h2.16v1.1l-6.83,0v.65a8.72,8.72,0,0,1-.26,2.26,6,6,0,0,1-.93,1.84Zm3.54-5.22h1.92c.07-.11.15-.23.22-.36l.26-.44.25-.46c.07-.14.14-.27.19-.4l-3.09,0c.06.08.11.16.16.24l.18.28a4.89,4.89,0,0,1,.27.46l.2.36Z"/><path class="cls-10" d="M60.57,91.35a9.35,9.35,0,0,1,.67.7l.83,1c.18.21.34.41.49.6s.29.36.41.53l-1.38-4.77L62.74,89l2.16,7.39,1-.3-2.15-7.4L65,88.38l1.47,5.05c0-.23.08-.48.13-.75s.09-.58.13-.9c.06-.47.1-.88.13-1.23s0-.68.06-1l1.25.05c0,.29,0,.62-.05,1s-.09.79-.15,1.29-.14.94-.21,1.33-.15.73-.23,1L66.6,94l.5,1.74L69.7,95,70,96.16l-8.56,2.49-.33-1.13,2.6-.76L63.22,95l-.73.58c-.1-.16-.2-.31-.3-.44s-.19-.27-.29-.4l-.33-.43-.4-.5c-.3-.37-.56-.69-.79-.94s-.44-.48-.64-.68Z"/><path class="cls-10" d="M73.41,94.15a12.78,12.78,0,0,0,.69-1.55A8.81,8.81,0,0,0,74.5,91a6.43,6.43,0,0,0,0-1.64,4.68,4.68,0,0,0-.45-1.55L71,89.7l-.61-1,3.09-2-1.21-1.92,1-.66,1.22,1.93,3.11-2,.61,1-3.13,2,0,.08,0,.06a6.91,6.91,0,0,0,1.2.93,6,6,0,0,0,1.34.6,7.63,7.63,0,0,0,1.58.3,14.71,14.71,0,0,0,1.88,0l0,1.37a11.69,11.69,0,0,1-3-.33,8.15,8.15,0,0,1-2.38-1,7.08,7.08,0,0,1,.05,1.38,8.43,8.43,0,0,1-.2,1.4,11.61,11.61,0,0,1-.41,1.39c-.16.46-.35.91-.55,1.35Z"/><path class="cls-10" d="M80.73,77.6c.29.08.58.17.89.28s.59.23.85.36l.42-.47c-.07-.31-.16-.65-.26-1s-.2-.68-.3-1l1-.42a7,7,0,0,1,.21.69c.06.24.12.48.17.71l1-1.17,1.59,1.42-.74.82-.8-.71-4.17,4.68.81.72-.74.82L79.16,82l1-1.06-.64-.2q-.33-.09-.66-.15l.38-1c.27.06.55.13.86.22a8.3,8.3,0,0,1,.84.27l.84-.94L81,78.81c-.24-.09-.48-.17-.73-.24Zm4,4.25-.32-.28c.09-.27.17-.54.24-.82s.13-.56.18-.86l-2.58,2.89-.78-.7,3.73-4.19.77.68c0,.45-.11.87-.18,1.25a10.42,10.42,0,0,1-.23,1.09L88,78.23l.85.76-2.42,2.73.8.72a2.5,2.5,0,0,1,.43.46.8.8,0,0,1,.17.42,1,1,0,0,1-.11.48,3.34,3.34,0,0,1-.39.61c-.14.19-.26.35-.37.48a2.8,2.8,0,0,1-.37.41l-1-.6c.13-.12.26-.25.4-.4a3.84,3.84,0,0,0,.35-.4,2.15,2.15,0,0,0,.18-.23.27.27,0,0,0,0-.16.33.33,0,0,0-.07-.15s-.11-.11-.19-.19l-.63-.56-2.63,3-.86-.76Z"/><path class="cls-10" d="M140.72,74.82a.4.4,0,0,1-.51-.12,6,6,0,0,0-4.55-2c-2.8,0-4.14,1.17-4.14,2.66,0,1.74,2.06,2.23,4.46,2.51,4.17.51,8.05,1.6,8.05,6.37,0,4.45-3.94,6.37-8.4,6.37-3.95,0-7-1.18-8.56-4.57a.41.41,0,0,1,.19-.52l2.43-1.26a.41.41,0,0,1,.54.17c1,1.94,3.17,2.81,5.46,2.81s4.6-.83,4.6-3c0-1.89-2-2.66-4.63-2.94-4.08-.49-7.85-1.57-7.85-6.06,0-4.11,4.06-5.79,7.74-5.82,3,0,6.07.81,7.65,3.59a.4.4,0,0,1-.16.56Z"/><path class="cls-10" d="M162.56,86.37H152.11l-1.61,3.54a.39.39,0,0,1-.36.23h-3.2a.4.4,0,0,1-.37-.57l8.6-19.18a.42.42,0,0,1,.37-.24h3.59a.42.42,0,0,1,.37.24l8.6,19.18a.4.4,0,0,1-.36.57h-3.23a.39.39,0,0,1-.37-.24Zm-5.22-12-3.72,8.51h7.43Z"/><path class="cls-10" d="M185,70.13h3a.4.4,0,0,1,.4.4V89.74a.4.4,0,0,1-.4.4h-1.94v0L175.55,76.66V89.74a.4.4,0,0,1-.4.4h-3a.4.4,0,0,1-.41-.4V70.56a.41.41,0,0,1,.41-.41h2.45a.4.4,0,0,1,.32.16l9.67,12.24v-12A.4.4,0,0,1,185,70.13Z"/><path class="cls-10" d="M208.4,74.76a.39.39,0,0,1-.54,0A7.72,7.72,0,0,0,203.05,73c-4.28,0-6.88,3.25-6.88,7.37,0,3.28,1.91,6.68,6.88,6.68a6.67,6.67,0,0,0,4.51-1.6V82h-4.71a.4.4,0,0,1-.4-.41V79a.4.4,0,0,1,.4-.4h7.77a.4.4,0,0,1,.4.4v7.39a1.61,1.61,0,0,1-.45,1.12,9.9,9.9,0,0,1-7.52,3.11c-7.51,0-10.56-4.94-10.56-10.19,0-5.63,3.51-10.83,10.56-10.83a10.57,10.57,0,0,1,7.13,2.78.4.4,0,0,1,0,.57Z"/><path class="cls-10" d="M215.53,89.74V70.59a.4.4,0,0,1,.4-.41h13.56a.4.4,0,0,1,.4.41v2.82a.4.4,0,0,1-.4.4H219.3v5.45h9.62a.4.4,0,0,1,.4.41v2.67a.4.4,0,0,1-.4.41H219.3v7a.4.4,0,0,1-.4.4h-3A.4.4,0,0,1,215.53,89.74Z"/><path class="cls-10" d="M254.16,80.26c0,5.17-3.22,10.34-10.25,10.34s-10.28-5.06-10.28-10.31S237,69.75,243.91,69.75,254.22,75,254.16,80.26Zm-16.81.09c.08,3.28,1.85,6.79,6.56,6.79s6.48-3.54,6.54-6.82-1.83-7.14-6.54-7.14S237.26,77,237.35,80.35Z"/><path class="cls-10" d="M276.09,90.14h-4.3a.41.41,0,0,1-.3-.14l-5.7-6.54h-3.63v6.28a.4.4,0,0,1-.4.4h-3a.4.4,0,0,1-.4-.4V70.53a.4.4,0,0,1,.4-.4l9.11,0c4.71,0,7.19,3.17,7.19,6.63a5.92,5.92,0,0,1-5,6.28l6,6.82ZM262.16,73.67v6.39h5.74a3.2,3.2,0,1,0,0-6.39Z"/><path class="cls-10" d="M305.83,70.18a.4.4,0,0,1,.4.41v11c0,5.91-3.62,8.94-8.65,8.94-4.79,0-8.88-2.91-8.88-8.94v-11a.41.41,0,0,1,.41-.41H292a.4.4,0,0,1,.4.41v11c0,3.6,2.06,5.51,5.17,5.51s4.88-2.08,4.88-5.51v-11a.41.41,0,0,1,.41-.41Z"/><path class="cls-10" d="M324.88,70.13h3a.4.4,0,0,1,.4.4V89.74a.4.4,0,0,1-.4.4h-1.94v0L315.4,76.66V89.74a.4.4,0,0,1-.4.4h-3a.4.4,0,0,1-.41-.4V70.56a.41.41,0,0,1,.41-.41h2.45a.4.4,0,0,1,.32.16l9.67,12.24v-12A.4.4,0,0,1,324.88,70.13Z"/><path class="cls-10" d="M333.16,89.74V70.56a.41.41,0,0,1,.41-.41h2.93a.4.4,0,0,1,.4.41V89.74a.4.4,0,0,1-.4.4h-2.93A.4.4,0,0,1,333.16,89.74Z"/><path class="cls-10" d="M352.45,90.23h-3.37a.4.4,0,0,1-.37-.25l-8-19.27a.41.41,0,0,1,.37-.56h3.35a.41.41,0,0,1,.38.26l5.92,15.31,6-15.31a.4.4,0,0,1,.37-.26h3.35a.4.4,0,0,1,.37.56l-8,19.27A.39.39,0,0,1,352.45,90.23Z"/><path class="cls-10" d="M379.27,90.14H365.12a.4.4,0,0,1-.4-.4V70.56a.4.4,0,0,1,.4-.41h14.15a.41.41,0,0,1,.41.41v2.85a.4.4,0,0,1-.41.4H368.46v4.6h10.42a.4.4,0,0,1,.4.4v2.71a.4.4,0,0,1-.4.4H368.46v4.51h10.81a.4.4,0,0,1,.41.4v2.91A.4.4,0,0,1,379.27,90.14Z"/><path class="cls-10" d="M401.75,90.14h-4.3a.37.37,0,0,1-.3-.14l-5.71-6.54h-3.62v6.28a.4.4,0,0,1-.41.4h-3a.4.4,0,0,1-.4-.4V70.53a.4.4,0,0,1,.4-.4l9.11,0c4.71,0,7.19,3.17,7.19,6.63a5.93,5.93,0,0,1-5.05,6.28l6.05,6.82ZM387.82,73.67v6.39h5.74a3.2,3.2,0,1,0,0-6.39Z"/><path class="cls-10" d="M418.25,74.82a.39.39,0,0,1-.5-.12,6,6,0,0,0-4.55-2c-2.8,0-4.14,1.17-4.14,2.66,0,1.74,2.06,2.23,4.45,2.51,4.17.51,8.06,1.6,8.06,6.37,0,4.45-3.94,6.37-8.4,6.37-3.95,0-7-1.18-8.56-4.57a.4.4,0,0,1,.19-.52l2.43-1.26a.41.41,0,0,1,.54.17c1,1.94,3.17,2.81,5.46,2.81s4.6-.83,4.6-3c0-1.89-2-2.66-4.63-2.94-4.08-.49-7.85-1.57-7.85-6.06,0-4.11,4-5.79,7.74-5.82,3,0,6.06.81,7.65,3.59a.41.41,0,0,1-.16.56Z"/><path class="cls-10" d="M425.94,89.74V70.56a.4.4,0,0,1,.4-.41h2.93a.41.41,0,0,1,.41.41V89.74a.4.4,0,0,1-.41.4h-2.93A.4.4,0,0,1,425.94,89.74Z"/><path class="cls-10" d="M440.73,73.58h-5.94a.4.4,0,0,1-.4-.4V70.56a.4.4,0,0,1,.4-.41h15.64a.4.4,0,0,1,.4.41v2.62a.4.4,0,0,1-.4.4H444.5V89.74a.4.4,0,0,1-.41.4h-3a.4.4,0,0,1-.4-.4Z"/><path class="cls-10" d="M464.17,78.41l5.19-8.07a.4.4,0,0,1,.34-.19H474v.18l-8,11.56v7.85a.4.4,0,0,1-.4.4h-3a.4.4,0,0,1-.4-.4V81.89L454.6,70.33v-.18h4.26a.43.43,0,0,1,.35.2Z"/><path class="cls-10" d="M127,50.23v6.13a.55.55,0,0,0,.84.46c6.63-4.29,9.47-11,9.61-18.29a.55.55,0,0,0-.55-.55H132.5a.56.56,0,0,0-.55.52c-.16,3.61-1.17,8.18-4.72,11.31A.57.57,0,0,0,127,50.23Z"/><path class="cls-10" d="M137.13,16.85l-9.35-3.53a.55.55,0,0,0-.74.51v4.65a.54.54,0,0,0,.36.51l9.35,3.48a.55.55,0,0,0,.74-.51v-4.6A.56.56,0,0,0,137.13,16.85Z"/><path class="cls-10" d="M137.13,28.05l-9.35-3.53A.55.55,0,0,0,127,25v4.64a.55.55,0,0,0,.36.52l9.35,3.48a.55.55,0,0,0,.74-.51v-4.6A.55.55,0,0,0,137.13,28.05Z"/><path class="cls-10" d="M153.2,21.21h-4.65a.55.55,0,0,0-.53.39c-1,3.48-4.42,5.18-7.82,5.76a.56.56,0,0,0-.45.54V32a.55.55,0,0,0,.6.55c6.58-.59,12.08-4.84,13.38-10.7A.54.54,0,0,0,153.2,21.21Z"/><path class="cls-10" d="M162.49,21.21h-4.65a.55.55,0,0,0-.54.66c1.3,5.86,6.81,10.11,13.39,10.7a.55.55,0,0,0,.6-.55V27.9a.56.56,0,0,0-.45-.54c-3.4-.58-6.85-2.28-7.82-5.76A.55.55,0,0,0,162.49,21.21Z"/><path class="cls-10" d="M145.27,18.91h20.5v3.54a.55.55,0,0,0,.54.55h4.43a.55.55,0,0,0,.55-.55V14.38a.55.55,0,0,0-.55-.55H140.3a.55.55,0,0,0-.55.55v8.07a.55.55,0,0,0,.55.55h4.42a.55.55,0,0,0,.55-.55Z"/><path class="cls-10" d="M170.74,35.45H158.28V31.52a.55.55,0,0,0-.55-.55h-4.42a.54.54,0,0,0-.55.55v3.93H140.3a.55.55,0,0,0-.55.55v3.89a.55.55,0,0,0,.55.54h10.27A28.69,28.69,0,0,1,140,50.81a.53.53,0,0,0-.28.47v5.19a.55.55,0,0,0,.79.49,34.07,34.07,0,0,0,12.22-10.68V56.79a.55.55,0,0,0,.55.55h4.42a.55.55,0,0,0,.55-.55V46.28A34.07,34.07,0,0,0,170.5,57a.55.55,0,0,0,.79-.49V51.28a.53.53,0,0,0-.28-.47,28.69,28.69,0,0,1-10.54-10.38h10.27a.55.55,0,0,0,.55-.54V36A.55.55,0,0,0,170.74,35.45Z"/><path class="cls-10" d="M184.53,13.53a21,21,0,0,1-6.75,13.11.55.55,0,0,0-.19.41v5.7a.55.55,0,0,0,.83.48,22,22,0,0,0,3.64-2.85V56.79a.55.55,0,0,0,.55.55H187a.55.55,0,0,0,.55-.55V26.25h-2a24.76,24.76,0,0,0,4.47-12.63.55.55,0,0,0-.55-.58h-4.45A.54.54,0,0,0,184.53,13.53Z"/><rect class="cls-10" x="192.1" y="32.32" width="29.02" height="4.98" rx="0.55"/><path class="cls-10" d="M192.65,57h27.93a.54.54,0,0,0,.54-.54V40.87a.54.54,0,0,0-.54-.55H192.65a.54.54,0,0,0-.55.55V56.41A.54.54,0,0,0,192.65,57Zm5-11.65h18V52h-18Z"/><path class="cls-10" d="M209.56,16V13.59A.55.55,0,0,0,209,13H204.2a.55.55,0,0,0-.55.55V16H191.93a.55.55,0,0,0-.55.55v3.89a.55.55,0,0,0,.55.54h29.36a.55.55,0,0,0,.55-.54V16.52a.55.55,0,0,0-.55-.55Z"/><rect class="cls-10" x="192.1" y="24.25" width="29.02" height="4.98" rx="0.55"/><path class="cls-10" d="M337.74,41.66a73.66,73.66,0,0,0-3-17.74.55.55,0,0,0-.52-.39h-4.81a.55.55,0,0,0-.53.69,85.41,85.41,0,0,1,2.89,17.5.55.55,0,0,0,.55.51h4.89A.55.55,0,0,0,337.74,41.66Z"/><path class="cls-10" d="M372.34,23.53h-4.89a.53.53,0,0,0-.54.51A86.79,86.79,0,0,1,364,41.54a.54.54,0,0,0,.52.69h4.81a.55.55,0,0,0,.52-.39,73.66,73.66,0,0,0,3-17.74A.54.54,0,0,0,372.34,23.53Z"/><path class="cls-10" d="M360.58,13h-5.19a.55.55,0,0,0-.55.55V51.78h-8.1V13.59a.55.55,0,0,0-.54-.55H341a.55.55,0,0,0-.55.55V51.78H329.22a.54.54,0,0,0-.55.55v4.08a.54.54,0,0,0,.55.54h43.15a.55.55,0,0,0,.55-.54V52.33a.55.55,0,0,0-.55-.55H361.13V13.59A.55.55,0,0,0,360.58,13Z"/><path class="cls-10" d="M304.74,16.23V13.59a.55.55,0,0,0-.55-.55H299a.55.55,0,0,0-.55.55v2.64h-18.4a.55.55,0,0,0-.55.54v4.08a.55.55,0,0,0,.55.55h41.77a.54.54,0,0,0,.54-.55V16.77a.54.54,0,0,0-.54-.54Z"/><path class="cls-10" d="M317.81,23.53h-5.08a.53.53,0,0,0-.52.4c-.8,2.84-1.76,5.68-2.84,8.43H294.09a75.46,75.46,0,0,0-2.94-8.49.55.55,0,0,0-.51-.34h-5.18a.55.55,0,0,0-.51.76,84.92,84.92,0,0,1,2.89,8.07h-5.95a.54.54,0,0,0-.55.55V44.62a8.25,8.25,0,0,1-3,6.33.55.55,0,0,0-.23.45v5.37a.55.55,0,0,0,.76.51,13.3,13.3,0,0,0,8.17-12.83V38.08a.55.55,0,0,1,.55-.55h34.22a.54.54,0,0,0,.54-.54V32.91a.54.54,0,0,0-.54-.55h-6.09a74.92,74.92,0,0,0,2.61-8.15A.55.55,0,0,0,317.81,23.53Z"/><path class="cls-10" d="M422.92,23.53H404.6V13.59a.55.55,0,0,0-.55-.55h-5.41a.55.55,0,0,0-.55.55v9.94H379.77a.55.55,0,0,0-.55.55v4.46a.55.55,0,0,0,.55.55H397.9a24,24,0,0,1-6,14.11,25.52,25.52,0,0,1-12.25,7.58.54.54,0,0,0-.41.52v5.36a.55.55,0,0,0,.67.54A31.38,31.38,0,0,0,393,50.5a29.28,29.28,0,0,0,8.38-11.23,29.26,29.26,0,0,0,8.37,11.23,31.38,31.38,0,0,0,13.08,6.7.55.55,0,0,0,.67-.54V51.3a.54.54,0,0,0-.41-.52,25.52,25.52,0,0,1-12.25-7.58,24,24,0,0,1-6-14.11h18.13a.55.55,0,0,0,.55-.55V24.08A.55.55,0,0,0,422.92,23.53Z"/><path class="cls-10" d="M468.4,18.81l1.89-5a.54.54,0,0,0-.51-.74h-5.09a.55.55,0,0,0-.51.35l-2.13,5.42h-6.54a32.07,32.07,0,0,0-2.26-5.47.56.56,0,0,0-.49-.3h-5.13a.55.55,0,0,0-.49.8,38.85,38.85,0,0,1,2.12,5h-6.93a33,33,0,0,0-2.27-5.47.55.55,0,0,0-.48-.3h-5.14a.55.55,0,0,0-.49.8,38.91,38.91,0,0,1,2.13,5h-5.76a.55.55,0,0,0-.55.55v9.18a.55.55,0,0,0,.55.55H435a.55.55,0,0,0,.54-.55V24.18h32.73v4.36a.55.55,0,0,0,.55.55h4.66a.55.55,0,0,0,.55-.55V19.36a.54.54,0,0,0-.55-.55Z"/><path class="cls-10" d="M455.8,39.57A43.82,43.82,0,0,0,465.29,33a2.76,2.76,0,0,0,.9-2V27.89a.54.54,0,0,0-.55-.54H438.15a.55.55,0,0,0-.55.54v4.28a.55.55,0,0,0,.55.54h19.18a25.68,25.68,0,0,1-7.09,3.81.54.54,0,0,0-.34.5v3.71H430.32a.55.55,0,0,0-.55.55v4.27a.55.55,0,0,0,.55.54H449.9v5.5h-9.28a.55.55,0,0,0-.55.54v4.28a.55.55,0,0,0,.55.54h12.45a2.73,2.73,0,0,0,2.73-2.73V46.09h17.67a.54.54,0,0,0,.55-.54V41.28a.55.55,0,0,0-.55-.55H455.8Z"/><path class="cls-10" d="M230.31,40.33c0,5.88-1,7.55-2.08,9.24a.52.52,0,0,0-.09.29v6.86a.55.55,0,0,0,.92.41,20.64,20.64,0,0,0,6.13-13.62h7.12V52H237a.55.55,0,0,0-.55.55v3.84a.55.55,0,0,0,.55.54h7.69a2.73,2.73,0,0,0,2.73-2.73V14.38a.55.55,0,0,0-.55-.55h-16a.55.55,0,0,0-.54.55Zm5.13-21.52h6.87V26h-6.87Zm0,12.21h6.87v7.51h-6.87Z"/><path class="cls-10" d="M271.47,52A18.66,18.66,0,0,1,268,50.08,20,20,0,0,0,271.81,38V31.84a.55.55,0,0,0-.55-.55H255.19V18.86h11.32v4.43h-6.24a.55.55,0,0,0-.54.55v3.89a.54.54,0,0,0,.54.54h8.64a2.74,2.74,0,0,0,2.74-2.73V14.38a.55.55,0,0,0-.55-.55H250.6a.55.55,0,0,0-.54.55V56.74a.55.55,0,0,0,.54.55h4a.55.55,0,0,0,.55-.55V36.27h11.44V38a16.36,16.36,0,0,1-2.27,8.41,15.43,15.43,0,0,1-2.17-7.17.54.54,0,0,0-.54-.51h-4a.54.54,0,0,0-.54.58A20,20,0,0,0,260.69,50,18.29,18.29,0,0,1,257.2,52a.54.54,0,0,0-.34.51v4.15a.55.55,0,0,0,.71.52,21.91,21.91,0,0,0,6.79-3.38,21.3,21.3,0,0,0,6.74,3.38.55.55,0,0,0,.71-.52V52.46A.54.54,0,0,0,271.47,52Z"/></g></g></svg>