<?xml version="1.0" encoding="UTF-8"?>
<svg width="25px" height="24px" viewBox="0 0 25 24" version="1.1" xmlns="http://www.w3.org/2000/svg" xmlns:xlink="http://www.w3.org/1999/xlink">
    <!-- Generator: Sketch 54 (76480) - https://sketchapp.com -->
    <title>矩形</title>
    <desc>Created with Sketch.</desc>
    <g id="页面1" stroke="none" stroke-width="1" fill="none" fill-rule="evenodd">
        <g id="首页（1920）折叠导航栏" transform="translate(-91.000000, -20.000000)">
            <g id="编组" transform="translate(92.000000, 20.000000)">
                <g id="折叠（有底色）" transform="translate(3.000000, 4.000000)" fill="#FFFFFF" fill-rule="nonzero">
                    <path d="M17.0763279,1.24737413e-05 L0.922765618,1.24737413e-05 C0.593620757,-0.00184548294 0.288801366,0.203969084 0.123772014,0.539494302 C-0.041257338,0.87501952 -0.041257338,1.28894073 0.123772014,1.62446594 C0.288801366,1.95999116 0.593620757,2.16580573 0.922765618,2.16394777 L17.0772344,2.16394777 C17.4063792,2.16580573 17.7111986,1.95999116 17.876228,1.62446594 C18.0412573,1.28894073 18.0412573,0.87501952 17.876228,0.539494302 C17.7111986,0.203969084 17.4063792,-0.00184548294 17.0772344,1.24737413e-05 L17.0763279,1.24737413e-05 Z M17.0763279,14.8360522 L0.922765618,14.8360522 C0.593620757,14.8341943 0.288801366,15.0400088 0.123772014,15.3755341 C-0.041257338,15.7110593 -0.041257338,16.1249805 0.123772014,16.4605057 C0.288801366,16.7960309 0.593620757,17.0018455 0.922765618,16.9999875 L17.0772344,16.9999875 C17.4063792,17.0018455 17.7111986,16.7960309 17.876228,16.4605057 C18.0412573,16.1249805 18.0412573,15.7110593 17.876228,15.3755341 C17.7111986,15.0400088 17.4063792,14.8341943 17.0772344,14.8360522 L17.0763279,14.8360522 Z M17.083328,7.41801993 L7.91667204,7.41801993 C7.41040805,7.41801993 7,7.89247542 7,8.47774593 C7,9.06301643 7.41040805,9.53747192 7.91667204,9.53747192 L17.083328,9.53747192 C17.5895919,9.53747192 18,9.06301643 18,8.47774593 C18,7.89247542 17.5895919,7.41801993 17.083328,7.41801993 L17.083328,7.41801993 Z M1.61701904,6.34771332 C1.45562681,6.20575129 1.2223345,6.16940778 1.0227683,6.2551378 C0.823202104,6.34086783 0.695256885,6.53239243 0.69686154,6.7429963 L0.727651981,11.1938107 C0.729426685,11.3985756 0.853446081,11.5840248 1.04618674,11.6701234 C1.23892739,11.7562219 1.4658821,11.7275553 1.62910332,11.5964952 L4.25657143,9.48024717 C4.37841885,9.38225345 4.45038673,9.23828033 4.45396673,9.0853541 C4.45754673,8.93242788 4.39238949,8.78547195 4.27525183,8.68227973 L1.61701904,6.34771332 Z" id="形状"></path>
                </g>
                <rect id="矩形" x="0" y="0" width="24" height="24"></rect>
            </g>
        </g>
    </g>
</svg>