<?xml version="1.0" encoding="UTF-8"?>
<svg width="24px" height="24px" viewBox="0 0 24 24" version="1.1" xmlns="http://www.w3.org/2000/svg" xmlns:xlink="http://www.w3.org/1999/xlink">
    <title>矩形</title>
    <g id="页面1" stroke="none" stroke-width="1" fill="none" fill-rule="evenodd">
        <g id="关联课程" transform="translate(-953.000000, -319.000000)">
            <g id="编组备份-19" transform="translate(953.000000, 315.000000)">
                <g id="编组-4备份" transform="translate(0.000000, 4.000000)">
                    <g id="视频" transform="translate(2.000000, 4.000000)" fill="#057599" fill-rule="nonzero">
                        <path d="M7.77923168,11.263484 L12.7797698,8.59638082 C13.2398228,8.35197486 13.2398228,7.65064436 12.7797698,7.40438811 L7.77923168,4.73831819 C7.36363421,4.51690865 6.87487326,4.8378732 6.87487326,5.33418239 L6.87487326,10.6668028 C6.87487326,11.1634244 7.36361153,11.4838843 7.77923168,11.263484 L7.77923168,11.263484 Z M18.130763,0 L1.86853461,0 C0.840144977,0 0,0.90584718 0,2.01054002 L0,13.9901809 C0,15.1000641 0.834095221,16 1.86853461,16 L18.1307403,16 C19.1586315,16 20,15.0964356 20,13.9901809 L20,2.01056404 C20,0.900969133 19.1656555,0 18.130763,0 L18.130763,0 Z M3.75012036,13.9932807 C3.75012036,14.3659331 3.48245855,14.6664964 3.11947351,14.6664964 L1.88061145,14.6664964 C1.53258085,14.6664964 1.2499646,14.3818408 1.2499646,13.9932807 L1.2499646,12.6730175 C1.2499646,12.3016867 1.51739983,12.0004265 1.88061145,12.0004265 L3.11947351,12.0004265 C3.46677904,12.0004265 3.75012036,12.2860675 3.75012036,12.6730175 L3.75012036,13.9932807 L3.75012036,13.9932807 Z M3.75012036,8.66010755 C3.75012036,9.03280802 3.48245855,9.33382794 3.11947351,9.33382794 L1.88061145,9.33382794 C1.53258085,9.33382794 1.2499646,9.04813898 1.2499646,8.66010755 L1.2499646,7.33989242 C1.2499646,6.96798493 1.51739983,6.66672472 1.88061145,6.66672472 L3.11947351,6.66672472 C3.46677904,6.66672472 3.75012036,6.95236564 3.75012036,7.33989242 L3.75012036,8.66010755 L3.75012036,8.66010755 Z M3.75012036,3.32746308 C3.75012036,3.69961086 3.48245855,4.00012614 3.11947351,4.00012614 L1.88061145,4.00012614 C1.53258085,4.00012614 1.2499646,3.71602314 1.2499646,3.32746308 L1.2499646,2.00722392 C1.2499646,1.63531643 1.51739983,1.33405622 1.88061145,1.33405622 L3.11947351,1.33405622 C3.46677904,1.33405622 3.75012036,1.61969714 3.75012036,2.00722392 L3.75012036,3.32746308 L3.75012036,3.32746308 Z M14.9994619,14.6664965 L5.00006231,14.6664965 L5.00006231,1.33405622 L14.9994619,1.33405622 L14.9994619,14.6664965 L14.9994619,14.6664965 Z M18.7495822,13.9932807 C18.7495822,14.3659331 18.4816712,14.6664964 18.1184369,14.6664964 L16.8795748,14.6664964 C16.5320654,14.6664964 16.2499249,14.3818408 16.2499249,13.9932807 L16.2499249,12.6730175 C16.2499249,12.3016867 16.5178133,12.0004265 16.8805491,12.0004265 L18.119887,12.0004265 C18.4664675,12.0004265 18.7495822,12.2860675 18.7495822,12.6730175 L18.7495822,13.9932807 L18.7495822,13.9932807 Z M18.7495822,8.66010755 C18.7495822,9.03280802 18.4816712,9.33382794 18.1184369,9.33382794 L16.8795748,9.33382794 C16.5320654,9.33382794 16.2499249,9.04813898 16.2499249,8.66010755 L16.2499249,7.33989242 C16.2499249,6.96798493 16.5178133,6.66672472 16.8805491,6.66672472 L18.119887,6.66672472 C18.4664675,6.66672472 18.7495822,6.95236564 18.7495822,7.33989242 L18.7495822,8.66010755 L18.7495822,8.66010755 Z M18.7495822,3.32746308 C18.7495822,3.69961086 18.4816712,4.00012614 18.1184369,4.00012614 L16.8795748,4.00012614 C16.5320654,4.00012614 16.2499249,3.71602314 16.2499249,3.32746308 L16.2499249,2.00722392 C16.2499249,1.63531643 16.5178133,1.33405622 16.8805491,1.33405622 L18.119887,1.33405622 C18.4664675,1.33405622 18.7495822,1.61969714 18.7495822,2.00722392 L18.7495822,3.32746308 L18.7495822,3.32746308 Z" id="形状"></path>
                    </g>
                    <rect id="矩形" x="0" y="0" width="24" height="24"></rect>
                </g>
            </g>
        </g>
    </g>
</svg>