<?xml version="1.0" encoding="UTF-8"?>
<svg width="84px" height="136px" viewBox="0 0 84 136" version="1.1" xmlns="http://www.w3.org/2000/svg" xmlns:xlink="http://www.w3.org/1999/xlink">
    <title>矩形</title>
    <defs>
        <linearGradient x1="50%" y1="0.36604021%" x2="50%" y2="100%" id="linearGradient-1">
            <stop stop-color="#FFFFFF" stop-opacity="0.2" offset="0%"></stop>
            <stop stop-color="#FFFFFF" stop-opacity="0" offset="100%"></stop>
        </linearGradient>
    </defs>
    <g id="页面1" stroke="none" stroke-width="1" fill="none" fill-rule="evenodd">
        <g id="平台态势备份" transform="translate(-516.000000, -153.000000)">
            <g id="编组-2" transform="translate(516.000000, 153.000000)">
                <g id="编组">
                    <path d="M0,0 L79,0 C81.7614237,-5.07265313e-16 84,2.23857625 84,5 L84,131 C84,133.761424 81.7614237,136 79,136 L0,136 L0,136 L0,0 Z" id="矩形" fill="url(#linearGradient-1)"></path>
                    <path d="M55.4171556,63.0407767 L61.8082791,63.0407767 C62.6914969,63.0407767 63.40606,62.2895978 63.40606,61.3608877 C63.40606,60.4321776 62.6914969,59.679889 61.8082791,59.679889 L55.4171556,59.679889 C54.5339379,59.679889 53.8193748,60.4321775 53.8193748,61.3608877 C53.8193748,62.2895978 54.5339379,63.0407767 55.4171556,63.0407767 Z M61.8082791,66.4027739 L55.4171556,66.4027739 C54.5339379,66.4027739 53.8193748,67.1528433 53.8193748,68.082663 C53.8193748,69.0113731 54.5339379,69.762552 55.4171556,69.762552 L61.8082791,69.762552 C62.6914969,69.762552 63.40606,69.0113731 63.40606,68.082663 C63.40606,67.1528433 62.6914969,66.4016644 61.8082791,66.4016644 L61.8082791,66.4027739 Z M61.8082791,73.1234397 L55.4171556,73.1234397 C54.5339379,73.1234397 53.8193748,73.8746186 53.8193748,74.8033287 C53.8193748,75.7320388 54.5339379,76.4843273 55.4171556,76.4843273 L61.8082791,76.4843273 C62.6914969,76.4843273 63.40606,75.7320388 63.40606,74.8033287 C63.40606,73.8746186 62.6914969,73.1234397 61.8082791,73.1234397 L61.8082791,73.1234397 Z M56.1050891,83.2049931 C55.8476688,83.0840499 51.2496106,80.9692094 46.1810946,79.90957 C46.7722447,79.3974626 47.2944079,78.8107748 47.7344927,78.1642164 C48.8368219,76.5724202 49.4253798,74.6812906 49.4210391,72.7450763 L49.4210391,67.2427184 C49.4166008,64.3023578 48.0806785,61.5439667 45.8304705,59.8030513 C44.3528221,58.6391114 42.5275651,58.0042564 40.6465593,58 C35.8088339,58 31.8720794,62.1453537 31.8720794,67.2427184 L31.8720794,72.7461859 C31.8720794,75.7142857 33.21244,78.356172 35.2851168,80.0504854 C30.4695828,81.1423024 26.2310253,83.0884882 26.0224261,83.1861304 C24.562232,83.8041609 23.4615385,85.5306519 23.4615385,87.2005548 L23.4615385,94.118724 L23.5458658,94.3850208 C24.0207618,95.8485437 25.2989865,96.8349515 26.7281127,96.8349515 L55.3372666,96.8349515 C56.9971834,96.8349515 58.3730503,95.527878 58.5816494,93.8424411 L58.6082791,87.2061026 C58.6082791,86.4072122 58.3508588,85.5905686 57.9247839,84.8948682 C57.4765176,84.1392511 56.832967,83.5190014 56.1050891,83.2049931 Z" id="形状" fill="#B78CFF" fill-rule="nonzero"></path>
                </g>
                <rect id="矩形" x="0" y="0" width="84" height="136"></rect>
            </g>
        </g>
    </g>
</svg>