<?xml version="1.0" encoding="UTF-8"?>
<svg width="87px" height="136px" viewBox="0 0 87 136" version="1.1" xmlns="http://www.w3.org/2000/svg" xmlns:xlink="http://www.w3.org/1999/xlink">
    <title>矩形</title>
    <defs>
        <linearGradient x1="50%" y1="0.36604021%" x2="50%" y2="100%" id="linearGradient-1">
            <stop stop-color="#FFFFFF" stop-opacity="0.2" offset="0%"></stop>
            <stop stop-color="#FFFFFF" stop-opacity="0" offset="100%"></stop>
        </linearGradient>
    </defs>
    <g id="页面1" stroke="none" stroke-width="1" fill="none" fill-rule="evenodd">
        <g id="平台态势备份" transform="translate(-898.000000, -153.000000)">
            <g id="编组" transform="translate(898.000000, 153.000000)">
                <g id="编组-8">
                    <path d="M-5.68434189e-14,0 L81.5730769,0 C84.3345007,-6.97699784e-15 86.5730769,2.23857625 86.5730769,5 L86.5730769,131 C86.5730769,133.761424 84.3345007,136 81.5730769,136 L-5.68434189e-14,136 L-5.68434189e-14,136 L-5.68434189e-14,0 Z" id="矩形备份" fill="url(#linearGradient-1)"></path>
                    <g id="在线-(2)" transform="translate(17.000000, 60.000000)" fill="#C6DBFF" fill-rule="nonzero">
                        <path d="M19.5655872,29.5652174 C14.7778641,29.5652174 10.7471542,26.2072762 9.62553861,21.6838856 C9.30342169,20.3847477 10.3145752,19.1304348 11.630079,19.1304348 C12.5377226,19.1304348 13.375072,19.7288875 13.592134,20.6261735 C14.2525896,23.3589242 16.679667,25.3917762 19.5648148,25.3917762 C22.4499627,25.3917762 24.878585,23.3589242 25.5382681,20.6261735 C25.75533,19.7288876 26.5926795,19.1304348 27.5003231,19.1304348 C28.8165993,19.1304348 29.8269804,20.3855341 29.5048635,21.6838856 C28.3840203,26.2072761 24.3533105,29.5652174 19.5655872,29.5652174 L19.5655872,29.5652174 Z" id="路径"></path>
                        <path d="M6.30239624,41.7391304 C5.51479029,41.7391304 4.74422206,41.4609958 4.12389525,40.9316925 C3.2340632,40.1735638 2.81044423,39.0317481 2.99088892,37.8799164 L3.97597712,31.5999297 C2.91964034,29.6668557 0,23.9600882 0,19.8951624 C0,14.2446382 2.42864521,8.83988946 6.66173657,5.06773699 C10.8917302,1.30020727 16.583093,-0.501118848 22.271358,0.120639086 C31.4593193,1.13070686 38.8637443,8.49780698 39.8774869,17.6377263 C40.5063325,23.2982664 38.6941418,28.9580361 34.9063537,33.1662667 C31.1139188,37.3791201 25.6819936,39.7952701 20.0022475,39.79527 C18.4696299,39.79527 16.1037143,39.3561101 15.0435054,39.1434642 L7.32775534,41.5804165 C6.99614683,41.685211 6.65033272,41.7391304 6.30239624,41.7391304 L6.30239624,41.7391304 Z M19.9828865,3.84810518 C15.9999394,3.84810518 12.2431288,5.26728511 9.24526984,7.93845598 C5.82998755,10.9817571 3.87220214,15.3394562 3.87220214,19.8959328 C3.87220214,23.0054931 6.61449573,28.4495351 7.67160691,30.2863023 L8.00848854,30.8718488 L6.94440735,37.659566 L14.8483464,35.1632887 L15.3532816,35.2726934 C16.2167827,35.4599142 18.735263,35.9437605 20.003022,35.9437605 C24.5838372,35.9437605 28.9648467,33.9952773 32.0238864,30.5983369 C35.1239714,27.1543987 36.5466185,22.702704 36.0316157,18.0622476 C35.214581,10.6989998 29.2490663,4.76417739 21.8477391,3.95057583 C21.2219912,3.88200523 20.5993411,3.84810518 19.9828865,3.84810518 L19.9828865,3.84810518 Z" id="形状"></path>
                    </g>
                </g>
                <rect id="矩形" x="0" y="0" width="87" height="136"></rect>
            </g>
        </g>
    </g>
</svg>