<?xml version="1.0" encoding="UTF-8"?>
<svg width="24px" height="24px" viewBox="0 0 24 24" version="1.1" xmlns="http://www.w3.org/2000/svg" xmlns:xlink="http://www.w3.org/1999/xlink">
    <title>矩形</title>
    <g id="页面1" stroke="none" stroke-width="1" fill="none" fill-rule="evenodd">
        <g id="平台态势备份" transform="translate(-280.000000, -405.000000)">
            <g id="编组-2" transform="translate(280.000000, 405.000000)">
                <g id="文本" transform="translate(1.714286, 1.714286)" fill="#7F97FD" fill-rule="nonzero">
                    <path d="M20.4601913,3.35405013 C20.3907168,3.20104998 20.2794796,3.07157441 20.1544439,2.95389126 C20.0293622,2.83620811 19.8625179,2.74204953 19.681875,2.68320796 C19.5011633,2.62436638 19.3065153,2.57731723 19.1119821,2.57731723 L17.6524898,2.57731723 L17.6524898,1.2827624 C17.6524898,0.929692866 17.5135179,0.623712658 17.2215918,0.376594115 C16.9297117,0.129435393 16.5822474,0 16.1930434,0 L1.45944643,0 C1.056375,0 0.722755102,0.129435393 0.430875,0.376594115 C0.138994898,0.623712658 0,0.929692866 0,1.2827624 L0,16.723101 C0,17.0761706 0.138994898,17.3821508 0.430897959,17.6292693 C0.722778061,17.876428 1.07028827,18.0058835 1.45946939,18.0058835 L2.94671939,18.0058835 L2.94671939,19.288666 C2.94671939,19.6417155 3.08571429,19.9476957 3.36370408,20.1948343 C3.64167092,20.4419729 3.98915816,20.5714286 4.40616582,20.5714286 L19.1119821,20.5714286 C19.3083359,20.5714286 19.5025103,20.5354252 19.681875,20.4655176 C19.8625179,20.3948836 20.015426,20.3007652 20.1544439,20.1948343 C20.2934158,20.0889235 20.3907168,19.9476756 20.4601913,19.7829232 C20.5296658,19.6181708 20.5714286,19.4534385 20.5714286,19.288666 L20.5714286,3.86005955 C20.5574923,3.67178258 20.5296888,3.50699001 20.4601913,3.35405013 Z M14.4694974,2.75382187 C14.6085383,2.87150502 14.6780128,3.02450516 14.6780128,3.20102989 C14.6780128,3.37755461 14.6085383,3.53055476 14.4694974,3.65999016 C14.3305026,3.78944564 14.1637041,3.86003946 13.9413214,3.86003946 L8.00616582,3.86003946 C7.92277806,3.86003946 7.8255,3.83651488 7.72819898,3.80119788 C7.63089796,3.76592106 7.56135459,3.71881164 7.47801276,3.65999016 C7.40851531,3.612941 7.3528852,3.54230701 7.31121429,3.45994085 C7.26952041,3.37755461 7.25560714,3.29518846 7.25560714,3.21278213 C7.25560714,2.89502959 7.42240561,2.68318787 7.7698699,2.58906947 C7.85328061,2.57729714 7.93669133,2.56552481 7.99227551,2.56552481 L13.9413214,2.56552481 C14.1636811,2.56552481 14.3443699,2.63613872 14.4694974,2.75382187 Z M13.9413214,6.42562453 C14.1637041,6.42562453 14.3305026,6.4844862 14.4694974,6.61394168 C14.6085383,6.73162483 14.6780128,6.88460489 14.6780128,7.0611497 C14.6780128,7.23769452 14.6085383,7.39065449 14.4694974,7.52013006 C14.3305026,7.64958554 14.1637041,7.72019945 13.9413214,7.72019945 L3.59997704,7.72019945 C3.37759439,7.72019945 3.19690561,7.6613177 3.05791071,7.52013006 C2.91891582,7.39067458 2.8355051,7.23769452 2.8355051,7.0611497 C2.8355051,6.88460489 2.90497959,6.73164492 3.05791071,6.61394168 C3.19692857,6.49625853 3.37761735,6.42562453 3.59997704,6.42562453 L13.9413214,6.42562453 Z M3.05788776,15.2402893 C2.91889286,15.1108338 2.83548214,14.9578136 2.83548214,14.781309 C2.83548214,14.6047642 2.90495663,14.4517841 3.05788776,14.3340608 C3.19690561,14.2163977 3.37759439,14.1458039 3.59995408,14.1458039 L13.9412985,14.1458039 C14.1636811,14.1458039 14.3304796,14.2046455 14.4694745,14.3340608 C14.6085153,14.4635163 14.6779898,14.6047642 14.6779898,14.7930813 C14.6779898,14.898972 14.6501403,15.004923 14.5806429,15.0990213 C14.5111684,15.1932 14.4278036,15.2755662 14.3165663,15.3462001 C14.205398,15.4168341 14.0802934,15.4403386 13.9412985,15.4403386 L3.59997704,15.4403386 C3.39148469,15.4403386 3.21084184,15.3697046 3.05788776,15.2402893 L3.05788776,15.2402893 Z M14.6223827,11.1801403 C14.5806658,11.2507341 14.5389719,11.321348 14.4694974,11.3801896 C14.4138903,11.4272388 14.3305026,11.4860803 14.2331786,11.5213973 C14.1358776,11.5566942 14.0385995,11.5802389 13.9413214,11.5802389 L3.59997704,11.5802389 C3.46098214,11.5802389 3.3220102,11.5449219 3.22468622,11.4860803 C3.1134949,11.4272187 3.03010714,11.3448525 2.94671939,11.2389618 C2.87722194,11.1447831 2.8355051,11.0388723 2.8355051,10.9329615 C2.8355051,10.7446644 2.90497959,10.5916844 3.05791071,10.4740012 C3.19692857,10.3563382 3.37761735,10.2857042 3.59997704,10.2857042 L13.9413214,10.2857042 C14.1637041,10.2857042 14.3305026,10.3445457 14.4694974,10.4740012 C14.6085383,10.5916643 14.6780128,10.7446644 14.6780128,10.9329615 C14.6780128,11.0271402 14.6640765,11.1095264 14.6223827,11.1801403 L14.6223827,11.1801403 Z M19.0980459,19.3004183 L4.39229847,19.3004183 L4.39229847,18.0176358 L16.1652628,18.0176358 C16.415449,18.0176358 16.6656352,17.9587942 16.8880179,17.841111 C17.1104005,17.7234279 17.2910893,17.5704278 17.4300612,17.3703383 C17.5690791,17.170289 17.6385765,16.9584472 17.6385765,16.7230809 L17.6385765,3.86005955 L19.0980459,3.86005955 L19.0980459,19.3004183 L19.0980459,19.3004183 Z" id="形状"></path>
                </g>
                <rect id="矩形" x="0" y="0" width="24" height="24"></rect>
            </g>
        </g>
    </g>
</svg>