<?xml version="1.0" encoding="UTF-8"?>
<svg width="24px" height="24px" viewBox="0 0 24 24" version="1.1" xmlns="http://www.w3.org/2000/svg" xmlns:xlink="http://www.w3.org/1999/xlink">
    <title>矩形</title>
    <g id="页面1" stroke="none" stroke-width="1" fill="none" fill-rule="evenodd">
        <g id="平台态势备份" transform="translate(-460.000000, -405.000000)">
            <rect fill="#EDEFF2" x="0" y="0" width="1440" height="1296"></rect>
            <rect id="矩形复制备份-2" fill="#FFFFFF" x="240" y="305" width="745" height="185" rx="5"></rect>
            <circle id="椭圆形备份-7" fill-opacity="0.04" fill="#2F54EB" cx="472" cy="417" r="28"></circle>
            <g id="编组-2" transform="translate(460.000000, 405.000000)">
                <g id="视频-(1)" transform="translate(1.714286, 1.714286)" fill="#7F97FD" fill-rule="nonzero">
                    <path d="M18.5230284,0 L1.95503932,0 C0.837478406,0 0,1.14264934 0,2.62893506 L0,18.057039 C0,19.4287792 0.837478406,20.5714286 1.95503932,20.5714286 L18.6163892,20.5714286 C19.6405893,20.5714286 20.5714286,19.4287792 20.5714286,17.9424935 L20.5714286,2.62893506 C20.4780677,1.14264934 19.6405893,0 18.5230284,0 Z M3.90968306,17.9424935 C3.90968306,18.4002078 3.63039174,18.856987 3.25813515,18.856987 L1.95503932,18.856987 C1.58238715,18.856987 1.30309583,18.5142857 1.30309583,17.9424935 L1.30309583,16.2285195 C1.30309583,15.7712727 1.58238715,15.3144935 1.95503932,15.3144935 L3.25773955,15.3144935 C3.62999612,15.3144935 3.90968306,15.6571948 3.90968306,16.2285195 L3.90968306,17.9424935 Z M3.90968306,11.0861299 C3.90968306,11.5429091 3.63039174,12.0001558 3.25813515,12.0001558 L1.95503932,12.0001558 C1.58238715,12.0001558 1.30309583,11.6579221 1.30309583,11.0861299 L1.30309583,9.48576624 C1.30309583,9.02851949 1.58238715,8.57174026 1.95503932,8.57174026 L3.25773955,8.57174026 C3.62999612,8.57174026 3.90968306,8.91444156 3.90968306,9.48576624 L3.90968306,11.0861299 Z M3.90968306,4.22883117 C3.90968306,4.68607791 3.63039174,5.14285714 3.25813515,5.14285714 L1.95503932,5.14285714 C1.58238715,5.14285714 1.30270022,4.80015585 1.30270022,4.22883117 L1.30270022,2.62893506 C1.30270022,2.17168831 1.58199155,1.71444156 1.95464372,1.71444156 L3.25734395,1.71444156 C3.62960052,1.71444156 3.90928746,2.05714286 3.90928746,2.62893506 L3.90928746,4.22883117 L3.90968306,4.22883117 Z M13.1251102,11.0861299 L8.0056922,14.5145455 C7.54047038,14.7431688 7.07485296,14.4 7.07485296,13.7145974 L7.07485296,6.8572987 C7.07485296,6.17142857 7.54007478,5.82872727 8.0056922,6.05735066 L13.1251102,9.48576624 C13.590332,9.82893508 13.590332,10.7424935 13.1251102,11.0861299 Z M19.1749719,17.9424935 C19.1749719,18.4002078 18.8956806,18.856987 18.5230284,18.856987 L17.2203282,18.856987 C16.8480716,18.856987 16.5687803,18.5142857 16.5687803,17.9424935 L16.5687803,16.2285195 C16.5687803,15.7712727 16.8480716,15.3144935 17.2203282,15.3144935 L18.523424,15.3144935 C18.8960762,15.3144935 19.1753675,15.6571948 19.1753675,16.2285195 L19.1753675,17.9424935 L19.1749719,17.9424935 Z M19.1749719,11.0861299 C19.1749719,11.5429091 18.8956806,12.0001558 18.5230284,12.0001558 L17.2203282,12.0001558 C16.8480716,12.0001558 16.5687803,11.6579221 16.5687803,11.0861299 L16.5687803,9.48576624 C16.5687803,9.02851949 16.8480716,8.57174026 17.2203282,8.57174026 L18.523424,8.57174026 C18.8960762,8.57174026 19.1753675,8.91444156 19.1753675,9.48576624 L19.1753675,11.0861299 L19.1749719,11.0861299 Z M19.1749719,4.22883117 C19.1749719,4.68607791 18.8956806,5.14285714 18.5230284,5.14285714 L17.2203282,5.14285714 C16.8480716,5.14285714 16.5687803,4.80015585 16.5687803,4.22883117 L16.5687803,2.62893506 C16.5687803,2.17168831 16.8480716,1.71444156 17.2203282,1.71444156 L18.523424,1.71444156 C18.8960762,1.71444156 19.1753675,2.05714286 19.1753675,2.62893506 L19.1753675,4.22883117 L19.1749719,4.22883117 Z" id="形状"></path>
                </g>
                <rect id="矩形" x="0" y="0" width="24" height="24"></rect>
            </g>
            <g id="编组-2" transform="translate(460.000000, 405.000000)">
                <g id="视频-(1)" transform="translate(1.714286, 1.714286)" fill="#7F97FD" fill-rule="nonzero">
                    <path d="M18.5230284,0 L1.95503932,0 C0.837478406,0 0,1.14264934 0,2.62893506 L0,18.057039 C0,19.4287792 0.837478406,20.5714286 1.95503932,20.5714286 L18.6163892,20.5714286 C19.6405893,20.5714286 20.5714286,19.4287792 20.5714286,17.9424935 L20.5714286,2.62893506 C20.4780677,1.14264934 19.6405893,0 18.5230284,0 Z M3.90968306,17.9424935 C3.90968306,18.4002078 3.63039174,18.856987 3.25813515,18.856987 L1.95503932,18.856987 C1.58238715,18.856987 1.30309583,18.5142857 1.30309583,17.9424935 L1.30309583,16.2285195 C1.30309583,15.7712727 1.58238715,15.3144935 1.95503932,15.3144935 L3.25773955,15.3144935 C3.62999612,15.3144935 3.90968306,15.6571948 3.90968306,16.2285195 L3.90968306,17.9424935 Z M3.90968306,11.0861299 C3.90968306,11.5429091 3.63039174,12.0001558 3.25813515,12.0001558 L1.95503932,12.0001558 C1.58238715,12.0001558 1.30309583,11.6579221 1.30309583,11.0861299 L1.30309583,9.48576624 C1.30309583,9.02851949 1.58238715,8.57174026 1.95503932,8.57174026 L3.25773955,8.57174026 C3.62999612,8.57174026 3.90968306,8.91444156 3.90968306,9.48576624 L3.90968306,11.0861299 Z M3.90968306,4.22883117 C3.90968306,4.68607791 3.63039174,5.14285714 3.25813515,5.14285714 L1.95503932,5.14285714 C1.58238715,5.14285714 1.30270022,4.80015585 1.30270022,4.22883117 L1.30270022,2.62893506 C1.30270022,2.17168831 1.58199155,1.71444156 1.95464372,1.71444156 L3.25734395,1.71444156 C3.62960052,1.71444156 3.90928746,2.05714286 3.90928746,2.62893506 L3.90928746,4.22883117 L3.90968306,4.22883117 Z M13.1251102,11.0861299 L8.0056922,14.5145455 C7.54047038,14.7431688 7.07485296,14.4 7.07485296,13.7145974 L7.07485296,6.8572987 C7.07485296,6.17142857 7.54007478,5.82872727 8.0056922,6.05735066 L13.1251102,9.48576624 C13.590332,9.82893508 13.590332,10.7424935 13.1251102,11.0861299 Z M19.1749719,17.9424935 C19.1749719,18.4002078 18.8956806,18.856987 18.5230284,18.856987 L17.2203282,18.856987 C16.8480716,18.856987 16.5687803,18.5142857 16.5687803,17.9424935 L16.5687803,16.2285195 C16.5687803,15.7712727 16.8480716,15.3144935 17.2203282,15.3144935 L18.523424,15.3144935 C18.8960762,15.3144935 19.1753675,15.6571948 19.1753675,16.2285195 L19.1753675,17.9424935 L19.1749719,17.9424935 Z M19.1749719,11.0861299 C19.1749719,11.5429091 18.8956806,12.0001558 18.5230284,12.0001558 L17.2203282,12.0001558 C16.8480716,12.0001558 16.5687803,11.6579221 16.5687803,11.0861299 L16.5687803,9.48576624 C16.5687803,9.02851949 16.8480716,8.57174026 17.2203282,8.57174026 L18.523424,8.57174026 C18.8960762,8.57174026 19.1753675,8.91444156 19.1753675,9.48576624 L19.1753675,11.0861299 L19.1749719,11.0861299 Z M19.1749719,4.22883117 C19.1749719,4.68607791 18.8956806,5.14285714 18.5230284,5.14285714 L17.2203282,5.14285714 C16.8480716,5.14285714 16.5687803,4.80015585 16.5687803,4.22883117 L16.5687803,2.62893506 C16.5687803,2.17168831 16.8480716,1.71444156 17.2203282,1.71444156 L18.523424,1.71444156 C18.8960762,1.71444156 19.1753675,2.05714286 19.1753675,2.62893506 L19.1753675,4.22883117 L19.1749719,4.22883117 Z" id="形状"></path>
                </g>
                <rect id="矩形" x="0" y="0" width="24" height="24"></rect>
            </g>
        </g>
    </g>
</svg>