<?xml version="1.0" encoding="UTF-8"?>
<svg width="24px" height="24px" viewBox="0 0 24 24" version="1.1" xmlns="http://www.w3.org/2000/svg" xmlns:xlink="http://www.w3.org/1999/xlink">
    <title>矩形</title>
    <g id="页面1" stroke="none" stroke-width="1" fill="none" fill-rule="evenodd">
        <g id="平台态势备份" transform="translate(-640.000000, -405.000000)">
            <g id="编组-2" transform="translate(640.000000, 405.000000)">
                <g id="实验-(1)" transform="translate(1.285714, 1.285714)" fill="#7F97FD" fill-rule="nonzero">
                    <path d="M2.15855911,13.4175955 L3.33897783,14.098328 C3.34174877,14.1008872 3.34729064,14.1034463 3.35006158,14.1060055 L3.70197044,14.310737 L3.71028325,14.3184145 C4.49445813,14.7381142 5.38669951,14.9607598 6.31773399,14.9607598 C7.56188424,14.9607598 8.73399015,14.5589741 9.6705665,13.8398544 C10.9424261,12.8571429 12.546798,12.3069268 14.2398399,12.3069268 C15.6890394,12.3069268 17.0717365,12.7087125 18.2466133,13.4457461 L18.4655172,13.5737034 L15.3731527,6.17777525 L15.3731527,1.73510009 L17.132697,1.73510009 C17.2546182,1.73510009 17.3543719,1.64297088 17.3543719,1.53036852 L17.3543719,0.204731574 C17.3543719,0.0921292084 17.2546182,0 17.132697,0 L3.42764778,0 C3.3057266,0 3.20597291,0.0921292084 3.20597291,0.204731574 L3.20597291,1.53292766 C3.20597291,1.64553003 3.3057266,1.73765924 3.42764778,1.73765924 L5.18719212,1.73765924 L5.18719212,6.18033439 L2.15855911,13.4175955 Z M11.3857759,8.2199727 C11.9953818,8.2199727 12.4913793,8.6780596 12.4913793,9.24107143 C12.4913793,9.80408326 11.9953818,10.2621702 11.3857759,10.2621702 C10.77617,10.2621702 10.2801724,9.80408326 10.2801724,9.24107143 C10.2801724,8.6780596 10.77617,8.2199727 11.3857759,8.2199727 L11.3857759,8.2199727 Z M20.421798,18.2492607 L19.5932882,16.2684827 L17.2185961,14.8993403 L17.2158251,14.9018995 C17.1964286,14.8891037 17.1742611,14.876308 17.1548645,14.8635123 L16.9304187,14.7355551 L16.9221059,14.7278776 C16.1185345,14.2800273 15.1958128,14.0420268 14.234298,14.0420268 C12.9901478,14.0420268 11.8180419,14.4438126 10.8814655,15.1629322 C9.60960591,16.1456438 8.00523399,16.6958599 6.31219212,16.6958599 C4.84359606,16.6958599 3.4442734,16.2838376 2.26108374,15.5288899 L1.46028325,15.0656847 L0.138546798,18.2492607 C0.0609605911,18.4386374 0.0193965517,18.6382507 0.0193965517,18.837864 C0.0193965517,19.7386829 0.811884236,20.4705983 1.78725369,20.4705983 L18.7703202,20.4705983 C18.9892241,20.4705983 19.2053571,20.4322111 19.4076355,20.3605551 C20.3220443,20.0381028 20.7764778,19.0912193 20.421798,18.2492607 Z" id="形状"></path>
                </g>
                <rect id="矩形" x="0" y="0" width="24" height="24"></rect>
            </g>
        </g>
    </g>
</svg>