<?xml version="1.0" encoding="UTF-8"?>
<svg width="24px" height="24px" viewBox="0 0 24 24" version="1.1" xmlns="http://www.w3.org/2000/svg" xmlns:xlink="http://www.w3.org/1999/xlink">
    <title>矩形</title>
    <g id="页面1" stroke="none" stroke-width="1" fill="none" fill-rule="evenodd">
        <g id="平台态势备份" transform="translate(-820.000000, -405.000000)">
            <g id="编组-2" transform="translate(820.000000, 405.000000)">
                <path d="M17.7068687,1.28923493 L5.57592579,1.28923493 C3.20891255,1.28923493 1.28571429,1.02023912 1.28571429,3.51521932 L1.28571429,19.6851275 C1.28571429,22.1801077 3.20891255,21.8361307 5.57592579,21.8361307 L13.5645955,21.8361307 C15.0439788,21.8361307 16.3754237,20.0749682 18.1506837,18.3138057 C19.9259436,16.5526432 21.8491419,14.9382442 21.8491419,13.4706088 L21.8491419,3.51521932 C21.9970802,1.02023912 20.0738819,1.28923493 17.7068687,1.28923493 Z M4.24448084,17.4332244 L5.57592579,12.8835547 L8.97850733,16.2591161 L4.24448084,17.4332244 Z M10.162014,15.3785349 L6.31561743,11.5626828 L13.7125338,4.22450575 L17.5589303,8.04035781 L10.162014,15.3785349 Z M14.6001638,19.9282046 L14.6001638,14.4979536 L19.9259436,14.4979536 L14.6001638,19.9282046 Z" id="形状" fill="#7F97FD" fill-rule="nonzero"></path>
                <rect id="矩形" x="0" y="0" width="24" height="24"></rect>
            </g>
        </g>
    </g>
</svg>